HIERARCHY
ROOT Hips
{
  OFFSET 30.1817 79.0895 -133.674
  CHANNELS 6 Xposition Yposition Zposition Zrotation Xrotation Yrotation
  JOINT RightUpLeg
  {
    OFFSET -8.9458 -8.66707 0.101652
    CHANNELS 3 Zrotation Xrotation Yrotation
    JOINT RightLeg
    {
      OFFSET 0 -44.4227 1.3727
      CHANNELS 3 Zrotation Xrotation Yrotation
      JOINT RightFoot
      {
        OFFSET 0.253549 -42.0924 -1.46059
        CHANNELS 3 Zrotation Xrotation Yrotation
        JOINT RightToes
        {
          OFFSET 0.04 -4.41509 8.4991
          CHANNELS 3 Zrotation Xrotation Yrotation
          End Site
          {
            OFFSET -0.08 -0.137448 9.77979
          }
        }
      }
    }
  }
  JOINT Spine
  {
    OFFSET 0 11.8905 0
    CHANNELS 3 Zrotation Xrotation Yrotation
    JOINT Spine1
    {
      OFFSET 0 25.6574 0.127663
      CHANNELS 3 Zrotation Xrotation Yrotation
      JOINT HEad
      {
        OFFSET 0 8.73416 0.011341
        CHANNELS 3 Zrotation Xrotation Yrotation
        End Site
        {
          OFFSET -0.29 12.7742 2.51395
        }
      }
      JOINT LeftShoulder1
      {
        OFFSET 8.99 -0.362252 -0.22
        CHANNELS 3 Zrotation Xrotation Yrotation
        JOINT LeftArm
        {
          OFFSET 10.2827 -0.00338 0.322123
          CHANNELS 3 Zrotation Xrotation Yrotation
          JOINT LeftForeArm
          {
            OFFSET 32.7669 0.099144 -1.42434
            CHANNELS 3 Zrotation Xrotation Yrotation
            JOINT LeftHand
            {
              OFFSET 27.5643 0.085362 1.02216
              CHANNELS 3 Zrotation Xrotation Yrotation
              End Site
              {
                OFFSET 16.7443 -0.6 1.50291
              }
            }
          }
        }
      }
      JOINT RightShoulder
      {
        OFFSET -8.99 -0.362252 -0.22
        CHANNELS 3 Zrotation Xrotation Yrotation
        JOINT RightArm
        {
          OFFSET -10.2827 -0.00338 0.322123
          CHANNELS 3 Zrotation Xrotation Yrotation
          JOINT RightForeArm
          {
            OFFSET -32.8971 0.099144 -1.42434
            CHANNELS 3 Zrotation Xrotation Yrotation
            JOINT RightHand
            {
              OFFSET -27.4921 0.085362 1.02216
              CHANNELS 3 Zrotation Xrotation Yrotation
              End Site
              {
                OFFSET -16.6312 -0.6 1.50291
              }
            }
          }
        }
      }
    }
  }
  JOINT LeftUpLeg
  {
    OFFSET 8.9458 -8.66707 0.101652
    CHANNELS 3 Zrotation Xrotation Yrotation
    JOINT LeftLeg
    {
      OFFSET 0 -44.4227 1.3727
      CHANNELS 3 Zrotation Xrotation Yrotation
      JOINT LeftFoot
      {
        OFFSET -0.253549 -42.0924 -1.46059
        CHANNELS 3 Zrotation Xrotation Yrotation
        JOINT LeftToes
        {
          OFFSET -0.04 -4.41509 8.4991
          CHANNELS 3 Zrotation Xrotation Yrotation
          End Site
          {
            OFFSET 0.08 -0.047448 9.77979
          }
        }
      }
    }
  }
}
MOTION
Frames:	8
Frame Time:	0.0166667
-11.8322 53.1755 -193.228 1.71068 18.8292 -12.3908 -65.3745 -39.5811 -86.9565 -170.018 51.7029 179.027 23.4682 -20.9529 8.38877 0.0462049 0.000533403 0.662642 0.79846 28.4528 4.74578 -2.70497 -7.17717 22.4328 13.4217 24.936 27.7135 4.77083e-015 3.18055e-015 -1.59028e-015 -154.74 10.9227 -125.586 -122.55 16.2895 -0.0442053 10.6751 44.208 -9.34136 8.40999 1.2566 13.954 119.457 16.8583 116.872 98.9371 40.1025 11.5847 -10.6862 42.6692 7.19048 -173.455 -75.9858 159.991 84.5584 65.8631 -71.1492 -23.3407 23.1807 -13.0427 -3.36952e-008 1.56033e-007 -4.88727e-009 
-10.2007 55.7297 -192.684 1.89266 16.5604 -14.3199 -63.307 -36.1921 -78.9988 -169.045 58.5666 -178.511 29.9297 -16.1276 10.3716 0.0462049 0.000533403 0.662642 0.628066 28.8654 4.70111 -2.64719 -7.02681 21.9675 12.5764 24.2905 28.4554 -2.38542e-015 -3.18055e-015 -4.77083e-015 -153.753 11.4933 -127.147 -121.988 16.9118 -0.995329 10.1823 43.7502 -9.16886 7.90475 1.26891 14.4543 119.87 16.4972 116.829 98.3893 39.8203 11.9805 -10.4309 42.6576 7.51412 -174.479 -80.4628 159.566 84.6416 69.3114 -70.5303 -19.6401 19.4452 -12.5587 -3.36952e-008 1.56033e-007 -4.88727e-009 
-8.39814 58.7279 -191.609 2.085 14.3629 -16.135 -60.17 -33.1882 -70.8548 -167.526 66.5252 -177.758 37.2471 -11.936 11.4518 0.0462049 0.000533403 0.662642 0.501601 28.6231 4.80935 -2.57903 -6.84921 21.4176 11.7468 23.9851 28.8977 -7.95139e-016 0 -3.18055e-015 -152.365 11.9312 -128.82 -121.335 17.5824 -1.84407 9.6583 43.2936 -8.88316 7.51213 1.54128 14.8831 120.204 16.0255 116.875 97.7377 39.5278 12.3725 -10.0767 42.628 7.70487 169.389 -85.5219 143.099 79.7582 73.8224 -64.8095 -19.8434 17.0886 -11.0878 -3.36952e-008 1.56033e-007 -4.88727e-009 
-6.49866 62.1541 -190.058 2.28613 12.3056 -17.8204 -56.2573 -30.2866 -62.5095 -164.082 75.4098 179.811 45.5533 -8.55847 11.8632 0.0462049 0.000533403 0.662642 0.466355 27.8001 5.07862 -2.50139 -6.64663 20.79 10.9465 23.9493 29.0214 1.19271e-015 9.54166e-015 -0 -147.606 14.5174 -130.257 -117.826 18.3139 -0.929762 9.18626 42.838 -8.38859 7.25452 2.01338 15.2082 120.462 15.4454 116.974 96.9728 39.2876 12.7295 -9.73876 42.4705 7.84517 75.2347 -86.7651 48.8321 66.7372 78.5003 -51.6974 -19.0751 14.9205 -9.69425 -3.36952e-008 1.56033e-007 -4.88727e-009 
-3.93764 67.4876 -187.099 2.51884 10.4281 -19.3761 -53.1131 -31.2516 -57.2181 -158.821 81.2082 166.401 28.845 -9.35397 12.7413 0.0462049 0.000533403 0.662642 0.579467 26.445 5.50294 -2.41517 -6.42132 20.0915 10.1239 24.1545 28.813 7.95139e-016 -3.18055e-015 -0 -140.514 18.0029 -133.036 -116.058 21.0835 -1.12765 8.20213 39.9435 -3.17496 7.51049 2.55863 15.2448 121.305 18.2252 118.644 94.7726 37.398 10.4974 -9.66215 42.3366 8.28693 39.4454 -80.5117 14.751 32.0205 81.2062 -17.7759 -15.9545 12.3976 -8.55216 -3.36952e-008 1.56033e-007 -4.88727e-009 
-1.42306 72.7882 -183.929 2.7777 8.71844 -20.8219 -47.3273 -31.095 -50.2772 -109.212 87.6455 109.288 12.3689 -12.9226 11.8104 0.0462049 0.000533403 0.662642 0.835551 24.6919 6.06095 -2.32128 -6.17553 19.329 9.24316 24.5449 28.3477 2.38542e-015 3.18055e-015 1.19271e-015 -136.3 19.8909 -135.939 -115.501 23.0361 -0.934818 7.54659 37.8116 0.101458 7.8441 3.3077 15.1094 121.772 19.1577 119.404 93.674 36.6803 9.15406 -9.32604 41.8201 8.05892 34.8868 -73.0975 12.5275 -9.47771 78.7818 21.0558 -11.4234 10.3516 -7.6693 -3.36952e-008 1.56033e-007 -4.88727e-009 
0.672009 77.4023 -180.848 3.04762 7.16323 -22.1926 -43.1288 -26.2567 -39.9445 -7.67015 79.9389 5.67728 26.2931 -10.5721 11.8845 0.0462049 0.000533403 0.662642 1.16122 23.0428 6.59331 -2.22061 -5.91153 18.5092 8.20806 24.7193 27.9326 1.88845e-015 0 -5.96354e-016 -134.011 20.7377 -139.081 -115.66 24.4281 -0.664493 7.34681 36.6454 1.41505 8.21636 3.87776 14.9316 122.048 18.9312 119.468 93.2292 36.7255 8.44809 -9.38502 41.2685 8.07997 34.5439 -65.5237 14.7445 -24.9179 73.8574 32.8825 -8.13454 8.96299 -7.12439 -3.36952e-008 1.56033e-007 -4.88727e-009 
2.58931 81.7952 -177.531 3.29483 5.71653 -23.5006 -38.8899 -19.9959 -29.965 -1.49413 69.016 -3.90166 39.7744 -8.70028 12.0953 0.0462049 0.000533403 0.662642 1.53392 21.5482 7.1087 -2.11404 -5.63157 17.6391 6.99879 24.7286 27.5946 -4.96962e-017 3.18055e-015 4.47266e-016 -133.191 20.6943 -142.303 -116.303 25.4319 -0.432947 7.1018 35.6112 2.26697 8.57848 4.36529 14.6305 122.226 18.0066 118.997 93.208 37.2798 8.17222 -9.28241 40.4997 7.7568 34.2489 -58.318 17.0844 -32.2617 69.0078 36.2472 -5.3802 7.99304 -6.7765 -3.36952e-008 1.56033e-007 -4.88727e-009 
